<?xml version="1.0" encoding="UTF-8" standalone="no"?>
<!DOCTYPE svg PUBLIC "-//W3C//DTD SVG 1.1//EN"
 "http://www.w3.org/Graphics/SVG/1.1/DTD/svg11.dtd">
<!-- Generated by graphviz version 2.49.0 (20210828.1703)
 -->
<!-- Pages: 1 -->
<svg width="2297pt" height="293pt"
 viewBox="0.00 0.00 2297.00 293.00" xmlns="http://www.w3.org/2000/svg" xmlns:xlink="http://www.w3.org/1999/xlink">
<g id="graph0" class="graph" transform="scale(1 1) rotate(0) translate(4 289)">
<polygon fill="white" stroke="transparent" points="-4,4 -4,-289 2293,-289 2293,4 -4,4"/>
<!-- 0 -->
<g id="node1" class="node">
<title>0</title>
<polygon fill="#020e0e" stroke="#17aaa5" points="1371.5,-123 1049.5,-123 1049.5,-87 1371.5,-87 1371.5,-123"/>
<text text-anchor="middle" x="1210.5" y="-98.8" font-family="Heiti" font-size="24.00" fill="white">FTC對微軟和動視暴雪的訴訟</text>
</g>
<!-- E -->
<g id="node8" class="node">
<title>E</title>
<polygon fill="#0095b8" stroke="#0095b8" points="817,-36 0,-36 0,0 817,0 817,-36"/>
<text text-anchor="middle" x="408.5" y="-14.2" font-family="Heiti" font-size="16.00">未來影響1：這筆交易將使微軟在全球遊戲市場上擁有更大的市場份額，有望在遊戲產業的增長中獲得更多機會</text>
</g>
<!-- 0&#45;&gt;E -->
<g id="edge7" class="edge">
<title>0&#45;&gt;E</title>
<path fill="none" stroke="black" stroke-width="2" d="M1049.65,-86.95C913.37,-72.51 718.49,-51.85 579.42,-37.11"/>
<polygon fill="black" stroke="black" stroke-width="2" points="579.4,-33.59 569.08,-36.02 578.66,-40.55 579.4,-33.59"/>
<text text-anchor="middle" x="1010" y="-57.8" font-family="Heiti" font-size="14.00"> &#160;微軟增加的市場份額使其能夠利用這些機會 &#160;</text>
</g>
<!-- F -->
<g id="node9" class="node">
<title>F</title>
<polygon fill="#0095b8" stroke="#0095b8" points="1586,-36 835,-36 835,0 1586,0 1586,-36"/>
<text text-anchor="middle" x="1210.5" y="-14.2" font-family="Heiti" font-size="16.00">未來影響2：微軟收購動視暴雪將重塑遊戲行業的競爭格局，可能導致其他公司進行類似的收購或合作</text>
</g>
<!-- 0&#45;&gt;F -->
<g id="edge8" class="edge">
<title>0&#45;&gt;F</title>
<path fill="none" stroke="black" stroke-width="2" d="M1210.5,-86.8C1210.5,-75.16 1210.5,-59.55 1210.5,-46.24"/>
<polygon fill="black" stroke="black" stroke-width="2" points="1214,-46.18 1210.5,-36.18 1207,-46.18 1214,-46.18"/>
<text text-anchor="middle" x="1407" y="-57.8" font-family="Heiti" font-size="14.00"> &#160;微軟收購動視暴雪將對遊戲行業的競爭格局產生重大影響 &#160;</text>
</g>
<!-- G -->
<g id="node10" class="node">
<title>G</title>
<polygon fill="#0095b8" stroke="#0095b8" points="2289,-36 1604,-36 1604,0 2289,0 2289,-36"/>
<text text-anchor="middle" x="1946.5" y="-14.2" font-family="Heiti" font-size="16.00">未來影響3：這筆交易將為動視暴雪提供額外的資源和支持，有助於其在遊戲市場的未來發展</text>
</g>
<!-- 0&#45;&gt;G -->
<g id="edge9" class="edge">
<title>0&#45;&gt;G</title>
<path fill="none" stroke="black" stroke-width="2" d="M1371.53,-91.96C1443.78,-86 1530.02,-78.12 1607.5,-69 1682.52,-60.17 1766.53,-47.8 1832.14,-37.57"/>
<polygon fill="black" stroke="black" stroke-width="2" points="1832.76,-41.01 1842.1,-36.01 1831.68,-34.1 1832.76,-41.01"/>
<text text-anchor="middle" x="1938.5" y="-57.8" font-family="Heiti" font-size="14.00"> &#160;收購將為動視暴雪在遊戲市場的未來發展提供額外的資源和支持 &#160;</text>
</g>
<!-- 1 -->
<g id="node2" class="node">
<title>1</title>
<polygon fill="#17aaa5" stroke="#17aaa5" points="923,-285 576,-285 576,-249 923,-249 923,-285"/>
<text text-anchor="middle" x="749.5" y="-263.2" font-family="Heiti" font-size="16.00">政府在此事件中的參與和協助起到了重要作用</text>
</g>
<!-- B -->
<g id="node5" class="node">
<title>B</title>
<polygon fill="#a7a7a7" stroke="#a7a7a7" points="994,-196 505,-196 505,-160 994,-160 994,-196"/>
<text text-anchor="middle" x="749.5" y="-174.2" font-family="Heiti" font-size="16.00">法院對FTC要求禁令的拒絕表明政府的干預最終並未阻止這一合併</text>
</g>
<!-- 1&#45;&gt;B -->
<g id="edge1" class="edge">
<title>1&#45;&gt;B</title>
<path fill="none" stroke="black" stroke-width="2" d="M749.5,-248.81C749.5,-236.66 749.5,-220.11 749.5,-206.18"/>
<polygon fill="black" stroke="black" stroke-width="2" points="753,-206.15 749.5,-196.15 746,-206.15 753,-206.15"/>
<text text-anchor="middle" x="936.5" y="-219" font-family="Heiti" font-size="15.00"> &#160;FTC決定對微軟收購動視暴雪提起訴訟並尋求臨時禁令 &#160;</text>
</g>
<!-- 2 -->
<g id="node3" class="node">
<title>2</title>
<polygon fill="#17aaa5" stroke="#17aaa5" points="1367.5,-285 1053.5,-285 1053.5,-249 1367.5,-249 1367.5,-285"/>
<text text-anchor="middle" x="1210.5" y="-263.2" font-family="Heiti" font-size="16.00">微軟對訴訟的回應對於塑造結果至關重要</text>
</g>
<!-- C -->
<g id="node6" class="node">
<title>C</title>
<polygon fill="#a7a7a7" stroke="#a7a7a7" points="1408.5,-196 1012.5,-196 1012.5,-160 1408.5,-160 1408.5,-196"/>
<text text-anchor="middle" x="1210.5" y="-174.2" font-family="Heiti" font-size="16.00">完成交易預計將使微軟成為全球第三大電腦遊戲公司</text>
</g>
<!-- 2&#45;&gt;C -->
<g id="edge2" class="edge">
<title>2&#45;&gt;C</title>
<path fill="none" stroke="black" stroke-width="2" d="M1210.5,-248.81C1210.5,-236.66 1210.5,-220.11 1210.5,-206.18"/>
<polygon fill="black" stroke="black" stroke-width="2" points="1214,-206.15 1210.5,-196.15 1207,-206.15 1214,-206.15"/>
<text text-anchor="middle" x="1385" y="-219" font-family="Heiti" font-size="15.00"> &#160;微軟願意修改收購條款並解決監管機構提出的擔憂 &#160;</text>
</g>
<!-- 3 -->
<g id="node4" class="node">
<title>3</title>
<polygon fill="#17aaa5" stroke="#17aaa5" points="1789.5,-285 1459.5,-285 1459.5,-249 1789.5,-249 1789.5,-285"/>
<text text-anchor="middle" x="1624.5" y="-263.2" font-family="Heiti" font-size="16.00">對於微軟收購動視暴雪的消息反應是積極的</text>
</g>
<!-- D -->
<g id="node7" class="node">
<title>D</title>
<polygon fill="#a7a7a7" stroke="#a7a7a7" points="1822.5,-196 1426.5,-196 1426.5,-160 1822.5,-160 1822.5,-196"/>
<text text-anchor="middle" x="1624.5" y="-174.2" font-family="Heiti" font-size="16.00">使微軟在不斷增長的遊戲行業中獲得更大的市場份額</text>
</g>
<!-- 3&#45;&gt;D -->
<g id="edge3" class="edge">
<title>3&#45;&gt;D</title>
<path fill="none" stroke="black" stroke-width="2" d="M1624.5,-248.81C1624.5,-236.66 1624.5,-220.11 1624.5,-206.18"/>
<polygon fill="black" stroke="black" stroke-width="2" points="1628,-206.15 1624.5,-196.15 1621,-206.15 1628,-206.15"/>
<text text-anchor="middle" x="1837" y="-219" font-family="Heiti" font-size="15.00"> &#160;動視暴雪股價上漲10％表明投資者對合併的潛在利益充滿信心 &#160;</text>
</g>
<!-- B&#45;&gt;0 -->
<g id="edge4" class="edge">
<title>B&#45;&gt;0</title>
<path fill="none" stroke="black" stroke-width="2" d="M859.92,-159.99C929.25,-149.32 1018.68,-135.54 1089.86,-124.58"/>
<polygon fill="black" stroke="black" stroke-width="2" points="1090.43,-128.03 1099.78,-123.05 1089.37,-121.12 1090.43,-128.03"/>
</g>
<!-- C&#45;&gt;0 -->
<g id="edge5" class="edge">
<title>C&#45;&gt;0</title>
<path fill="none" stroke="black" stroke-width="2" d="M1210.5,-159.81C1210.5,-151.79 1210.5,-142.05 1210.5,-133.07"/>
<polygon fill="black" stroke="black" stroke-width="2" points="1214,-133.03 1210.5,-123.03 1207,-133.03 1214,-133.03"/>
</g>
<!-- D&#45;&gt;0 -->
<g id="edge6" class="edge">
<title>D&#45;&gt;0</title>
<path fill="none" stroke="black" stroke-width="2" d="M1525.34,-159.99C1463.46,-149.38 1383.75,-135.71 1320.02,-124.78"/>
<polygon fill="black" stroke="black" stroke-width="2" points="1320.38,-121.29 1309.93,-123.05 1319.19,-128.19 1320.38,-121.29"/>
</g>
</g>
</svg>
